# This file uses centimeters as units for non-parametric coordinates.

mtllib RoomModel.mtl
g default
v -106.115463 -5.054408 106.115463
v 106.115463 -5.054408 106.115463
v -106.115463 0.200930 106.115463
v 106.115463 0.200930 106.115463
v -106.115463 0.200930 -106.115463
v 106.115463 0.200930 -106.115463
v -106.115463 -5.054408 -106.115463
v 106.115463 -5.054408 -106.115463
v -106.115463 -4.850937 -106.020157
v 106.115463 -4.850937 -106.020157
v -106.115463 -4.850937 -100.764816
v 106.115463 -4.850937 -100.764816
v -106.115463 180.862061 -100.764816
v 106.115463 180.862061 -100.764816
v -106.115463 180.862061 -106.020157
v 106.115463 180.862061 -106.020157
v -106.057968 -4.850937 106.101646
v -106.057968 -4.850937 -106.129280
v -100.802628 -4.850937 106.101646
v -100.802628 -4.850937 -106.129280
v -100.802628 180.862061 106.101646
v -100.802628 180.862061 -106.129280
v -106.057968 180.862061 106.101646
v -106.057968 180.862061 -106.129280
v -100.950851 0.101254 105.762276
v -99.896744 0.101254 105.762276
v -100.950851 6.220257 105.762276
v -100.395935 6.220257 105.762276
v -100.950851 6.220257 -105.762276
v -100.395935 6.220257 -105.762276
v -100.950851 0.101254 -105.762276
v -99.896744 0.101254 -105.762276
v -105.156281 0.101254 -100.874229
v -105.156281 0.101254 -99.820122
v -105.156281 6.220257 -100.874229
v -105.156281 6.220257 -100.319313
v 106.368271 6.220257 -100.874229
v 106.368271 6.220257 -100.319313
v 106.368271 0.101254 -100.874229
v 106.368271 0.101254 -99.820122
vt 0.333333 0.000085
vt 0.666666 0.000042
vt 0.333334 0.008339
vt 0.666667 0.008297
vt 0.333376 0.341672
vt 0.666709 0.341630
vt 0.333378 0.349926
vt 0.666710 0.349884
vt 0.333420 0.683259
vt 0.666753 0.683217
vt 0.999999 0.000000
vt 1.000000 0.008254
vt 0.000000 0.000127
vt 0.000001 0.008381
vt 0.318189 0.000019
vt 0.681812 0.000040
vt 0.681811 0.009044
vt 0.318188 0.009023
vt 0.681792 0.327233
vt 0.318170 0.327211
vt 0.681792 0.336237
vt 0.318169 0.336215
vt 0.681773 0.654425
vt 0.318151 0.654404
vt 1.000000 0.000059
vt 0.999999 0.009063
vt 0.000001 0.000000
vt 0.000000 0.009004
vt 0.318189 0.000019
vt 0.681812 0.000040
vt 0.681811 0.009044
vt 0.318188 0.009023
vt 0.681792 0.327233
vt 0.318170 0.327211
vt 0.681792 0.336237
vt 0.318169 0.336215
vt 0.681773 0.654425
vt 0.318151 0.654404
vt 1.000000 0.000059
vt 0.999999 0.009063
vt 0.000001 0.000000
vt 0.000000 0.009004
vt 0.497051 0.002436
vt 0.499547 0.002493
vt 0.498243 0.017018
vt 0.496922 0.017026
vt 0.496907 0.018345
vt 0.005739 0.071470
vt 0.006153 0.070225
vt 0.000000 0.057621
vt 0.002201 0.056326
vt 1.000000 0.044916
vt 0.999776 0.047409
vt 0.499771 0.000000
vt 0.998473 0.061928
vt 0.497013 0.002438
vt 0.499510 0.002493
vt 0.498216 0.017019
vt 0.496896 0.017029
vt 0.496881 0.018348
vt 0.005750 0.071849
vt 0.006162 0.070604
vt 0.000000 0.058004
vt 0.002200 0.056708
vt 1.000000 0.044533
vt 0.999778 0.047026
vt 0.499732 0.000000
vt 0.998486 0.061546
vn 0.000000 0.000000 1.000000
vn 0.000000 0.000000 1.000000
vn 0.000000 0.000000 1.000000
vn 0.000000 0.000000 1.000000
vn 0.000000 1.000000 0.000000
vn 0.000000 1.000000 0.000000
vn 0.000000 1.000000 0.000000
vn 0.000000 1.000000 0.000000
vn 0.000000 0.000000 -1.000000
vn 0.000000 0.000000 -1.000000
vn 0.000000 0.000000 -1.000000
vn 0.000000 0.000000 -1.000000
vn 0.000000 -1.000000 0.000000
vn 0.000000 -1.000000 0.000000
vn 0.000000 -1.000000 0.000000
vn 0.000000 -1.000000 0.000000
vn 1.000000 0.000000 0.000000
vn 1.000000 0.000000 0.000000
vn 1.000000 0.000000 0.000000
vn 1.000000 0.000000 0.000000
vn -1.000000 0.000000 0.000000
vn -1.000000 0.000000 0.000000
vn -1.000000 0.000000 0.000000
vn -1.000000 0.000000 0.000000
vn 0.000000 -1.000000 0.000000
vn 0.000000 -1.000000 0.000000
vn 0.000000 -1.000000 0.000000
vn 0.000000 -1.000000 0.000000
vn 0.000000 0.000000 1.000000
vn 0.000000 0.000000 1.000000
vn 0.000000 0.000000 1.000000
vn 0.000000 0.000000 1.000000
vn 0.000000 1.000000 0.000000
vn 0.000000 1.000000 0.000000
vn 0.000000 1.000000 0.000000
vn 0.000000 1.000000 0.000000
vn 0.000000 0.000000 -1.000000
vn 0.000000 0.000000 -1.000000
vn 0.000000 0.000000 -1.000000
vn 0.000000 0.000000 -1.000000
vn 1.000000 0.000000 0.000000
vn 1.000000 0.000000 0.000000
vn 1.000000 0.000000 0.000000
vn 1.000000 0.000000 0.000000
vn -1.000000 0.000000 0.000000
vn -1.000000 0.000000 0.000000
vn -1.000000 0.000000 0.000000
vn -1.000000 0.000000 0.000000
vn 0.000000 -1.000000 0.000000
vn 0.000000 -1.000000 0.000000
vn 0.000000 -1.000000 0.000000
vn 0.000000 -1.000000 0.000000
vn 1.000000 0.000000 0.000000
vn 1.000000 0.000000 0.000000
vn 1.000000 0.000000 0.000000
vn 1.000000 0.000000 0.000000
vn 0.000000 1.000000 0.000000
vn 0.000000 1.000000 0.000000
vn 0.000000 1.000000 0.000000
vn 0.000000 1.000000 0.000000
vn -1.000000 0.000000 0.000000
vn -1.000000 0.000000 0.000000
vn -1.000000 0.000000 0.000000
vn -1.000000 0.000000 0.000000
vn 0.000000 0.000000 -1.000000
vn 0.000000 0.000000 -1.000000
vn 0.000000 0.000000 -1.000000
vn 0.000000 0.000000 -1.000000
vn 0.000000 0.000000 1.000000
vn 0.000000 0.000000 1.000000
vn 0.000000 0.000000 1.000000
vn 0.000000 0.000000 1.000000
vn 0.000000 0.000000 1.000000
vn 0.000000 0.000000 1.000000
vn 0.000000 0.000000 1.000000
vn 0.000000 0.000000 1.000000
vn 0.000000 1.000000 0.000000
vn 0.000000 1.000000 0.000000
vn 0.000000 1.000000 0.000000
vn 0.000000 1.000000 0.000000
vn 0.000000 0.000000 -1.000000
vn 0.000000 0.000000 -1.000000
vn 0.000000 0.000000 -1.000000
vn 0.000000 0.000000 -1.000000
vn 0.000000 -1.000000 0.000000
vn 0.000000 -1.000000 0.000000
vn 0.000000 -1.000000 0.000000
vn 0.000000 -1.000000 0.000000
vn 0.996689 0.081311 0.000000
vn 0.996689 0.081311 0.000000
vn 0.996689 0.081311 0.000000
vn 0.996689 0.081311 0.000000
vn -1.000000 0.000000 0.000000
vn -1.000000 0.000000 0.000000
vn -1.000000 0.000000 0.000000
vn -1.000000 0.000000 0.000000
vn -1.000000 -0.000001 0.000000
vn -1.000000 -0.000001 0.000000
vn -1.000000 -0.000001 0.000000
vn -1.000000 -0.000001 0.000000
vn 0.000000 1.000000 0.000000
vn 0.000000 1.000000 0.000000
vn 0.000000 1.000000 0.000000
vn 0.000000 1.000000 0.000000
vn 1.000000 0.000000 0.000000
vn 1.000000 0.000000 0.000000
vn 1.000000 0.000000 0.000000
vn 1.000000 0.000000 0.000000
vn 0.000000 -1.000000 0.000000
vn 0.000000 -1.000000 0.000000
vn 0.000000 -1.000000 0.000000
vn 0.000000 -1.000000 0.000000
vn 0.000000 0.081310 0.996689
vn 0.000000 0.081310 0.996689
vn 0.000000 0.081310 0.996689
vn 0.000000 0.081310 0.996689
vn 0.000000 0.000000 -1.000000
vn 0.000000 0.000000 -1.000000
vn 0.000000 0.000000 -1.000000
vn 0.000000 0.000000 -1.000000
s off
g roomModel
usemtl lambert3SG
f 1/1/1 2/2/2 4/4/3 3/3/4
f 3/3/5 4/4/6 6/6/7 5/5/8
f 5/5/9 6/6/10 8/8/11 7/7/12
f 7/7/13 8/8/14 2/10/15 1/9/16
f 2/2/17 8/11/18 6/12/19 4/4/20
f 7/13/21 1/1/22 3/3/23 5/14/24
usemtl lambert2SG
f 9/15/25 10/16/26 12/17/27 11/18/28
f 11/18/29 12/17/30 14/19/31 13/20/32
f 13/20/33 14/19/34 16/21/35 15/22/36
f 15/22/37 16/21/38 10/23/39 9/24/40
f 10/16/41 16/25/42 14/26/43 12/17/44
f 15/27/45 9/15/46 11/18/47 13/28/48
f 17/29/49 18/30/50 20/31/51 19/32/52
f 19/32/53 20/31/54 22/33/55 21/34/56
f 21/34/57 22/33/58 24/35/59 23/36/60
f 23/36/61 24/35/62 18/37/63 17/38/64
f 18/30/65 24/39/66 22/40/67 20/31/68
f 23/41/69 17/29/70 19/32/71 21/42/72
usemtl lambert4SG
f 25/43/73 26/44/74 28/45/75 27/46/76
f 27/46/77 28/47/78 30/48/79 29/49/80
f 29/49/81 30/48/82 32/50/83 31/51/84
f 31/52/85 32/53/86 26/44/87 25/54/88
f 26/44/89 32/53/90 30/55/91 28/45/92
f 31/51/93 25/43/94 27/46/95 29/49/96
f 33/56/97 34/57/98 36/58/99 35/59/100
f 35/59/101 36/60/102 38/61/103 37/62/104
f 37/62/105 38/61/106 40/63/107 39/64/108
f 39/65/109 40/66/110 34/57/111 33/67/112
f 34/57/113 40/66/114 38/68/115 36/58/116
f 39/64/117 33/56/118 35/59/119 37/62/120
